<mxfile host="app.diagrams.net" modified="2020-04-07T09:43:56.899Z" agent="5.0 (Windows NT 10.0; Win64; x64) AppleWebKit/537.36 (KHTML, like Gecko) Chrome/80.0.3987.163 Safari/537.36" etag="LzxdjCZ3_Xh8jdo-iIzy" version="12.9.8" type="github">
  <diagram id="C5RBs43oDa-KdzZeNtuy" name="Page-1">
    <mxGraphModel dx="1025" dy="5605" grid="0" gridSize="10" guides="1" tooltips="1" connect="1" arrows="1" fold="1" page="1" pageScale="1" pageWidth="1654" pageHeight="1169" math="0" shadow="0" extFonts="Roboto^https://fonts.googleapis.com/css?family=Roboto|Noto Sans TC^https://fonts.googleapis.com/css?family=Noto+Sans+TC">
      <root>
        <mxCell id="WIyWlLk6GJQsqaUBKTNV-0" />
        <mxCell id="WIyWlLk6GJQsqaUBKTNV-1" parent="WIyWlLk6GJQsqaUBKTNV-0" />
        <mxCell id="J6AxI7PObvK_dcv1gWlO-1" value="" style="edgeStyle=orthogonalEdgeStyle;orthogonalLoop=1;jettySize=auto;entryX=0.002;entryY=0.189;entryDx=0;entryDy=0;entryPerimeter=0;startFill=0;endArrow=block;endFill=1;strokeColor=#B3B3B3;strokeWidth=3;fontFamily=Roboto;" parent="WIyWlLk6GJQsqaUBKTNV-1" source="J6AxI7PObvK_dcv1gWlO-2" target="J6AxI7PObvK_dcv1gWlO-6" edge="1">
          <mxGeometry relative="1" as="geometry" />
        </mxCell>
        <mxCell id="J6AxI7PObvK_dcv1gWlO-2" value="" style="rounded=1;whiteSpace=wrap;fontFamily=Roboto;arcSize=6;strokeColor=#B3B3B3;" parent="WIyWlLk6GJQsqaUBKTNV-1" vertex="1">
          <mxGeometry x="5444" y="-2150" width="332" height="309" as="geometry" />
        </mxCell>
        <mxCell id="J6AxI7PObvK_dcv1gWlO-3" value="" style="rounded=1;whiteSpace=wrap;fontFamily=Roboto;arcSize=6;strokeColor=#B3B3B3;" parent="WIyWlLk6GJQsqaUBKTNV-1" vertex="1">
          <mxGeometry x="7054" y="-2150" width="332" height="773" as="geometry" />
        </mxCell>
        <mxCell id="J6AxI7PObvK_dcv1gWlO-4" value="" style="rounded=1;whiteSpace=wrap;fontFamily=Roboto;arcSize=6;strokeColor=#B3B3B3;" parent="WIyWlLk6GJQsqaUBKTNV-1" vertex="1">
          <mxGeometry x="6654" y="-2150" width="332" height="773" as="geometry" />
        </mxCell>
        <mxCell id="J6AxI7PObvK_dcv1gWlO-5" value="" style="rounded=1;whiteSpace=wrap;fontFamily=Roboto;arcSize=6;strokeColor=#B3B3B3;" parent="WIyWlLk6GJQsqaUBKTNV-1" vertex="1">
          <mxGeometry x="6247" y="-2150" width="332" height="773" as="geometry" />
        </mxCell>
        <mxCell id="J6AxI7PObvK_dcv1gWlO-6" value="" style="rounded=1;whiteSpace=wrap;fontFamily=Roboto;arcSize=6;strokeColor=#B3B3B3;" parent="WIyWlLk6GJQsqaUBKTNV-1" vertex="1">
          <mxGeometry x="5838" y="-2150" width="332" height="816" as="geometry" />
        </mxCell>
        <mxCell id="J6AxI7PObvK_dcv1gWlO-8" value="1.Select an object" style="rounded=1;whiteSpace=wrap;arcSize=0;fillColor=#96D2E7;strokeColor=none;shadow=0;dashed=1;dashPattern=1 1;labelBackgroundColor=none;fontFamily=Roboto;fontSize=24;fontColor=#434B54;" parent="WIyWlLk6GJQsqaUBKTNV-1" vertex="1">
          <mxGeometry x="5509.5" y="-2112" width="198" height="60" as="geometry" />
        </mxCell>
        <mxCell id="J6AxI7PObvK_dcv1gWlO-9" value="3.Add comments to the object with issues" style="rounded=1;whiteSpace=wrap;arcSize=0;fillColor=#96D2E7;strokeColor=none;shadow=0;dashed=1;dashPattern=1 1;labelBackgroundColor=none;fontFamily=Roboto;fontSize=24;fontColor=#434B54;" parent="WIyWlLk6GJQsqaUBKTNV-1" vertex="1">
          <mxGeometry x="5874" y="-1941" width="266" height="60" as="geometry" />
        </mxCell>
        <mxCell id="J6AxI7PObvK_dcv1gWlO-10" value="2.Set issue at the location" style="rounded=1;whiteSpace=wrap;arcSize=0;fillColor=#96D2E7;strokeColor=none;shadow=0;dashed=1;dashPattern=1 1;labelBackgroundColor=none;fontFamily=Roboto;fontSize=24;fontColor=#434B54;" parent="WIyWlLk6GJQsqaUBKTNV-1" vertex="1">
          <mxGeometry x="5509.5" y="-2009.5" width="201" height="68" as="geometry" />
        </mxCell>
        <mxCell id="J6AxI7PObvK_dcv1gWlO-11" value="1.Auto record object id/ coordination" style="rounded=1;whiteSpace=wrap;arcSize=0;fillColor=#d5e8d4;strokeColor=none;shadow=0;dashed=1;dashPattern=1 1;labelBackgroundColor=none;fontFamily=Roboto;fontSize=24;fontColor=#000000;" parent="WIyWlLk6GJQsqaUBKTNV-1" vertex="1">
          <mxGeometry x="5874" y="-2116" width="255" height="68" as="geometry" />
        </mxCell>
        <mxCell id="J6AxI7PObvK_dcv1gWlO-12" value="Describe issues" style="rounded=1;whiteSpace=wrap;arcSize=0;fillColor=#f5f5f5;strokeColor=#666666;shadow=0;dashed=1;dashPattern=1 1;labelBackgroundColor=none;fontFamily=Roboto;fontSize=24;fontColor=#333333;fontStyle=1" parent="WIyWlLk6GJQsqaUBKTNV-1" vertex="1">
          <mxGeometry x="5927" y="-2234" width="157" height="60" as="geometry" />
        </mxCell>
        <mxCell id="J6AxI7PObvK_dcv1gWlO-13" value="8.Assign issue to someone" style="rounded=1;whiteSpace=wrap;arcSize=0;fillColor=#A9C4EB;strokeColor=none;shadow=0;dashed=1;dashPattern=1 1;labelBackgroundColor=none;fontFamily=Roboto;fontSize=24;fontColor=#000000;" parent="WIyWlLk6GJQsqaUBKTNV-1" vertex="1">
          <mxGeometry x="5874" y="-1533" width="206" height="68" as="geometry" />
        </mxCell>
        <mxCell id="J6AxI7PObvK_dcv1gWlO-14" value="5.Select an issue type" style="rounded=1;whiteSpace=wrap;arcSize=0;fillColor=#96D2E7;strokeColor=none;shadow=0;dashed=1;dashPattern=1 1;labelBackgroundColor=none;fontFamily=Roboto;fontSize=24;fontColor=#434B54;" parent="WIyWlLk6GJQsqaUBKTNV-1" vertex="1">
          <mxGeometry x="5874" y="-1764" width="249" height="48" as="geometry" />
        </mxCell>
        <mxCell id="J6AxI7PObvK_dcv1gWlO-15" value="Create issues" style="rounded=1;whiteSpace=wrap;arcSize=0;fillColor=#f5f5f5;strokeColor=#666666;shadow=0;dashed=1;dashPattern=1 1;labelBackgroundColor=none;fontFamily=Roboto;fontSize=24;fontColor=#333333;fontStyle=1" parent="WIyWlLk6GJQsqaUBKTNV-1" vertex="1">
          <mxGeometry x="5501" y="-2234" width="238.5" height="60" as="geometry" />
        </mxCell>
        <mxCell id="J6AxI7PObvK_dcv1gWlO-16" value="In app issue viewer" style="rounded=1;whiteSpace=wrap;arcSize=0;fillColor=#f5f5f5;strokeColor=#666666;shadow=0;dashed=1;dashPattern=1 1;labelBackgroundColor=none;fontFamily=Roboto;fontSize=24;fontColor=#333333;fontStyle=1" parent="WIyWlLk6GJQsqaUBKTNV-1" vertex="1">
          <mxGeometry x="6334.5" y="-2234" width="157" height="60" as="geometry" />
        </mxCell>
        <mxCell id="J6AxI7PObvK_dcv1gWlO-17" value="Export issues" style="rounded=1;whiteSpace=wrap;arcSize=0;fillColor=#f5f5f5;strokeColor=#666666;shadow=0;dashed=1;dashPattern=1 1;labelBackgroundColor=none;fontFamily=Roboto;fontSize=24;fontColor=#333333;fontStyle=1" parent="WIyWlLk6GJQsqaUBKTNV-1" vertex="1">
          <mxGeometry x="7143" y="-2234" width="157" height="60" as="geometry" />
        </mxCell>
        <mxCell id="J6AxI7PObvK_dcv1gWlO-18" value="2.click issue to go to locations" style="rounded=1;whiteSpace=wrap;arcSize=0;fillColor=#96D2E7;strokeColor=none;shadow=0;dashed=1;dashPattern=1 1;labelBackgroundColor=none;fontFamily=Roboto;fontSize=24;fontColor=#434B54;" parent="WIyWlLk6GJQsqaUBKTNV-1" vertex="1">
          <mxGeometry x="6316" y="-2018" width="200" height="60" as="geometry" />
        </mxCell>
        <mxCell id="J6AxI7PObvK_dcv1gWlO-19" value="1.List all issues" style="rounded=1;whiteSpace=wrap;arcSize=0;fillColor=#96D2E7;strokeColor=none;shadow=0;dashed=1;dashPattern=1 1;labelBackgroundColor=none;fontFamily=Roboto;fontSize=24;fontColor=#434B54;" parent="WIyWlLk6GJQsqaUBKTNV-1" vertex="1">
          <mxGeometry x="6316" y="-2114.5" width="191" height="60" as="geometry" />
        </mxCell>
        <mxCell id="J6AxI7PObvK_dcv1gWlO-20" value="Back-end issue managing" style="rounded=1;whiteSpace=wrap;arcSize=0;fillColor=#f5f5f5;strokeColor=#666666;shadow=0;dashed=1;dashPattern=1 1;labelBackgroundColor=none;fontFamily=Roboto;fontSize=24;fontColor=#333333;fontStyle=1" parent="WIyWlLk6GJQsqaUBKTNV-1" vertex="1">
          <mxGeometry x="6726.5" y="-2234" width="187" height="60" as="geometry" />
        </mxCell>
        <mxCell id="J6AxI7PObvK_dcv1gWlO-21" value="6.Issue due date" style="rounded=1;whiteSpace=wrap;arcSize=0;fillColor=#96D2E7;strokeColor=none;shadow=0;dashed=1;dashPattern=1 1;labelBackgroundColor=none;fontFamily=Roboto;fontSize=24;fontColor=#434B54;" parent="WIyWlLk6GJQsqaUBKTNV-1" vertex="1">
          <mxGeometry x="5874" y="-1686" width="206" height="42" as="geometry" />
        </mxCell>
        <mxCell id="J6AxI7PObvK_dcv1gWlO-22" value="2.Auto record Issue opened date" style="rounded=1;whiteSpace=wrap;arcSize=0;fillColor=#d5e8d4;strokeColor=none;shadow=0;dashed=1;dashPattern=1 1;labelBackgroundColor=none;fontFamily=Roboto;fontSize=24;fontColor=#000000;" parent="WIyWlLk6GJQsqaUBKTNV-1" vertex="1">
          <mxGeometry x="5874" y="-2030" width="217" height="68" as="geometry" />
        </mxCell>
        <mxCell id="J6AxI7PObvK_dcv1gWlO-23" value="2.User account for log in appÂ " style="rounded=1;whiteSpace=wrap;arcSize=0;fillColor=#A9C4EB;strokeColor=none;shadow=0;dashed=1;dashPattern=1 1;labelBackgroundColor=none;fontFamily=Roboto;fontSize=24;fontColor=#000000;" parent="WIyWlLk6GJQsqaUBKTNV-1" vertex="1">
          <mxGeometry x="6718" y="-1999" width="210" height="60" as="geometry" />
        </mxCell>
        <mxCell id="J6AxI7PObvK_dcv1gWlO-24" value="4.Who opened the issue" style="rounded=1;whiteSpace=wrap;arcSize=0;fillColor=#96D2E7;strokeColor=none;shadow=0;dashed=1;dashPattern=1 1;labelBackgroundColor=none;fontFamily=Roboto;fontSize=24;fontColor=#434B54;" parent="WIyWlLk6GJQsqaUBKTNV-1" vertex="1">
          <mxGeometry x="5874" y="-1850" width="268" height="50" as="geometry" />
        </mxCell>
        <mxCell id="J6AxI7PObvK_dcv1gWlO-25" value="1.manage &amp; update issue at backend interface" style="rounded=1;whiteSpace=wrap;arcSize=0;fillColor=#d5e8d4;strokeColor=none;shadow=0;dashed=1;dashPattern=1 1;labelBackgroundColor=none;fontFamily=Roboto;fontSize=24;fontColor=#000000;" parent="WIyWlLk6GJQsqaUBKTNV-1" vertex="1">
          <mxGeometry x="6680" y="-2114.5" width="286" height="78" as="geometry" />
        </mxCell>
        <mxCell id="J6AxI7PObvK_dcv1gWlO-26" value="1.Generate sheets" style="rounded=1;whiteSpace=wrap;arcSize=0;fillColor=#d5e8d4;strokeColor=none;shadow=0;dashed=1;dashPattern=1 1;labelBackgroundColor=none;fontFamily=Roboto;fontSize=24;fontColor=#000000;" parent="WIyWlLk6GJQsqaUBKTNV-1" vertex="1">
          <mxGeometry x="7110" y="-2112" width="213" height="60" as="geometry" />
        </mxCell>
        <mxCell id="J6AxI7PObvK_dcv1gWlO-27" value="2.Data analytics &amp; visualization" style="rounded=1;whiteSpace=wrap;arcSize=0;fillColor=#A9C4EB;strokeColor=none;shadow=0;dashed=1;dashPattern=1 1;labelBackgroundColor=none;fontFamily=Roboto;fontSize=24;fontColor=#000000;" parent="WIyWlLk6GJQsqaUBKTNV-1" vertex="1">
          <mxGeometry x="7110" y="-2018" width="233" height="60" as="geometry" />
        </mxCell>
        <mxCell id="J6AxI7PObvK_dcv1gWlO-28" value="" style="edgeStyle=orthogonalEdgeStyle;orthogonalLoop=1;jettySize=auto;exitX=0.5;exitY=1;exitDx=0;exitDy=0;startFill=0;endArrow=block;endFill=1;strokeColor=#B3B3B3;strokeWidth=3;fontFamily=Roboto;" parent="WIyWlLk6GJQsqaUBKTNV-1" source="J6AxI7PObvK_dcv1gWlO-2" target="J6AxI7PObvK_dcv1gWlO-2" edge="1">
          <mxGeometry relative="1" as="geometry" />
        </mxCell>
        <mxCell id="J6AxI7PObvK_dcv1gWlO-29" value="9.Draw/ put marker on issue location" style="rounded=1;whiteSpace=wrap;arcSize=0;fillColor=#A9C4EB;strokeColor=none;shadow=0;dashed=1;dashPattern=1 1;labelBackgroundColor=none;fontFamily=Roboto;fontSize=24;fontColor=#000000;" parent="WIyWlLk6GJQsqaUBKTNV-1" vertex="1">
          <mxGeometry x="5874" y="-1431" width="225" height="68" as="geometry" />
        </mxCell>
        <mxCell id="J6AxI7PObvK_dcv1gWlO-30" value="" style="edgeStyle=orthogonalEdgeStyle;orthogonalLoop=1;jettySize=auto;exitX=1;exitY=0.5;exitDx=0;exitDy=0;startFill=0;endArrow=block;endFill=1;strokeColor=#B3B3B3;strokeWidth=3;fontFamily=Roboto;entryX=-0.005;entryY=0.199;entryDx=0;entryDy=0;entryPerimeter=0;" parent="WIyWlLk6GJQsqaUBKTNV-1" target="J6AxI7PObvK_dcv1gWlO-5" edge="1">
          <mxGeometry relative="1" as="geometry">
            <mxPoint x="6170.000000000004" y="-1996.0599999999995" as="sourcePoint" />
            <mxPoint x="6224" y="-1996" as="targetPoint" />
            <Array as="points" />
          </mxGeometry>
        </mxCell>
        <mxCell id="J6AxI7PObvK_dcv1gWlO-31" value="" style="edgeStyle=orthogonalEdgeStyle;orthogonalLoop=1;jettySize=auto;exitX=1;exitY=0.5;exitDx=0;exitDy=0;entryX=-0.001;entryY=0.199;entryDx=0;entryDy=0;entryPerimeter=0;startFill=0;endArrow=block;endFill=1;strokeColor=#B3B3B3;strokeWidth=3;fontFamily=Roboto;" parent="WIyWlLk6GJQsqaUBKTNV-1" target="J6AxI7PObvK_dcv1gWlO-4" edge="1">
          <mxGeometry relative="1" as="geometry">
            <mxPoint x="6579" y="-1996.33" as="sourcePoint" />
            <mxPoint x="6640.668" y="-1995.8220000000001" as="targetPoint" />
            <Array as="points" />
          </mxGeometry>
        </mxCell>
        <mxCell id="J6AxI7PObvK_dcv1gWlO-32" value="" style="endArrow=block;strokeColor=#B3B3B3;strokeWidth=3;fontFamily=Roboto;endFill=1;startFill=0;entryX=-0.004;entryY=0.2;entryDx=0;entryDy=0;entryPerimeter=0;" parent="WIyWlLk6GJQsqaUBKTNV-1" target="J6AxI7PObvK_dcv1gWlO-3" edge="1">
          <mxGeometry width="50" height="50" relative="1" as="geometry">
            <mxPoint x="6986" y="-1995.92" as="sourcePoint" />
            <mxPoint x="7036" y="-1995.92" as="targetPoint" />
          </mxGeometry>
        </mxCell>
        <mxCell id="J6AxI7PObvK_dcv1gWlO-33" value="3.User permissions&#xa;(can edit or only view?)" style="rounded=1;whiteSpace=wrap;arcSize=0;fillColor=#A9C4EB;strokeColor=none;shadow=0;dashed=1;dashPattern=1 1;labelBackgroundColor=none;fontFamily=Roboto;fontSize=24;fontColor=#000000;" parent="WIyWlLk6GJQsqaUBKTNV-1" vertex="1">
          <mxGeometry x="6693" y="-1905" width="260" height="60" as="geometry" />
        </mxCell>
        <mxCell id="J6AxI7PObvK_dcv1gWlO-34" value="4.Edit issues" style="rounded=1;whiteSpace=wrap;arcSize=0;fillColor=#96D2E7;strokeColor=none;shadow=0;dashed=1;dashPattern=1 1;labelBackgroundColor=none;fontFamily=Roboto;fontSize=24;fontColor=#434B54;" parent="WIyWlLk6GJQsqaUBKTNV-1" vertex="1">
          <mxGeometry x="6316" y="-1822" width="194" height="60" as="geometry" />
        </mxCell>
        <mxCell id="J6AxI7PObvK_dcv1gWlO-35" value="3.Highlight issue object/ location" style="rounded=1;whiteSpace=wrap;arcSize=0;fillColor=#96D2E7;strokeColor=none;shadow=0;dashed=1;dashPattern=1 1;labelBackgroundColor=none;fontFamily=Roboto;fontSize=24;fontColor=#434B54;" parent="WIyWlLk6GJQsqaUBKTNV-1" vertex="1">
          <mxGeometry x="6316" y="-1921" width="194" height="60" as="geometry" />
        </mxCell>
        <mxCell id="J6AxI7PObvK_dcv1gWlO-36" value="Optional basic features" style="rounded=1;whiteSpace=wrap;arcSize=0;fillColor=#96D2E7;strokeColor=none;shadow=0;dashed=1;dashPattern=1 1;labelBackgroundColor=none;fontFamily=Roboto;fontSize=24;fontColor=#434B54;" parent="WIyWlLk6GJQsqaUBKTNV-1" vertex="1">
          <mxGeometry x="5052" y="-2058" width="281.75" height="42" as="geometry" />
        </mxCell>
        <mxCell id="J6AxI7PObvK_dcv1gWlO-37" value="Required basic features" style="rounded=1;whiteSpace=wrap;arcSize=0;fillColor=#d5e8d4;strokeColor=none;shadow=0;dashed=1;dashPattern=1 1;labelBackgroundColor=none;fontFamily=Roboto;fontSize=24;fontColor=#000000;" parent="WIyWlLk6GJQsqaUBKTNV-1" vertex="1">
          <mxGeometry x="5053.75" y="-2130" width="278" height="42" as="geometry" />
        </mxCell>
        <mxCell id="J6AxI7PObvK_dcv1gWlO-38" value="Optional advanced features" style="rounded=1;whiteSpace=wrap;arcSize=0;fillColor=#A9C4EB;strokeColor=none;shadow=0;dashed=1;dashPattern=1 1;labelBackgroundColor=none;fontFamily=Roboto;fontSize=24;fontColor=#000000;" parent="WIyWlLk6GJQsqaUBKTNV-1" vertex="1">
          <mxGeometry x="5053.75" y="-1988" width="325" height="42" as="geometry" />
        </mxCell>
        <mxCell id="J6AxI7PObvK_dcv1gWlO-39" value="Issue tracker features&#xa;" style="text;strokeColor=none;fillColor=none;align=center;verticalAlign=middle;whiteSpace=wrap;rounded=0;dashed=1;fontFamily=Roboto;fontSize=36;" parent="WIyWlLk6GJQsqaUBKTNV-1" vertex="1">
          <mxGeometry x="5040" y="-2231" width="372" height="44" as="geometry" />
        </mxCell>
        <mxCell id="J6AxI7PObvK_dcv1gWlO-40" value="choose one" style="rounded=1;whiteSpace=wrap;arcSize=0;shadow=0;dashed=1;dashPattern=1 1;labelBackgroundColor=none;fontFamily=Roboto;fontSize=15;fillColor=none;strokeColor=none;" parent="WIyWlLk6GJQsqaUBKTNV-1" vertex="1">
          <mxGeometry x="5530.5" y="-2051.5" width="156" height="42" as="geometry" />
        </mxCell>
        <mxCell id="J6AxI7PObvK_dcv1gWlO-44" value="7.Issue status" style="rounded=1;whiteSpace=wrap;arcSize=0;fillColor=#96D2E7;strokeColor=none;shadow=0;dashed=1;dashPattern=1 1;labelBackgroundColor=none;fontFamily=Roboto;fontSize=24;fontColor=#434B54;" parent="WIyWlLk6GJQsqaUBKTNV-1" vertex="1">
          <mxGeometry x="5874" y="-1607" width="193" height="42" as="geometry" />
        </mxCell>
        <mxCell id="J6AxI7PObvK_dcv1gWlO-45" style="edgeStyle=none;orthogonalLoop=1;jettySize=auto;html=1;exitX=0.385;exitY=-0.002;exitDx=0;exitDy=0;entryX=0.75;entryY=1;entryDx=0;entryDy=0;startFill=1;endArrow=block;endFill=1;strokeColor=#B3B3B3;strokeWidth=4;fontFamily=Roboto;startArrow=block;exitPerimeter=0;" parent="WIyWlLk6GJQsqaUBKTNV-1" source="J6AxI7PObvK_dcv1gWlO-47" target="J6AxI7PObvK_dcv1gWlO-50" edge="1">
          <mxGeometry relative="1" as="geometry" />
        </mxCell>
        <mxCell id="J6AxI7PObvK_dcv1gWlO-46" style="edgeStyle=none;orthogonalLoop=1;jettySize=auto;html=1;startArrow=none;startFill=0;endArrow=none;endFill=0;strokeColor=#B3B3B3;strokeWidth=2;fontFamily=Roboto;dashed=1;" parent="WIyWlLk6GJQsqaUBKTNV-1" source="J6AxI7PObvK_dcv1gWlO-47" target="J6AxI7PObvK_dcv1gWlO-55" edge="1">
          <mxGeometry relative="1" as="geometry" />
        </mxCell>
        <mxCell id="J6AxI7PObvK_dcv1gWlO-47" value="&lt;font style=&quot;font-size: 24px&quot; color=&quot;#434b54&quot;&gt;Database or cloud storage&lt;/font&gt;" style="rounded=1;whiteSpace=wrap;html=1;arcSize=0;fillColor=#96D2E7;strokeColor=none;shadow=0;dashed=1;dashPattern=1 1;labelBackgroundColor=none;fontFamily=Roboto;fontSize=24;fontColor=#434B54;" parent="WIyWlLk6GJQsqaUBKTNV-1" vertex="1">
          <mxGeometry x="8898" y="-1894" width="187" height="78" as="geometry" />
        </mxCell>
        <mxCell id="J6AxI7PObvK_dcv1gWlO-48" style="edgeStyle=none;orthogonalLoop=1;jettySize=auto;html=1;exitX=0.25;exitY=1;exitDx=0;exitDy=0;entryX=0.75;entryY=0;entryDx=0;entryDy=0;startFill=1;endArrow=block;endFill=1;strokeColor=#B3B3B3;strokeWidth=4;fontFamily=Roboto;startArrow=block;" parent="WIyWlLk6GJQsqaUBKTNV-1" source="J6AxI7PObvK_dcv1gWlO-49" target="J6AxI7PObvK_dcv1gWlO-47" edge="1">
          <mxGeometry relative="1" as="geometry" />
        </mxCell>
        <mxCell id="J6AxI7PObvK_dcv1gWlO-49" value="&lt;font style=&quot;font-size: 24px&quot; color=&quot;#434b54&quot;&gt;Android App&lt;br&gt;User&lt;br&gt;&lt;/font&gt;" style="rounded=1;whiteSpace=wrap;html=1;arcSize=0;fillColor=#d5e8d4;strokeColor=none;shadow=0;dashed=1;dashPattern=1 1;labelBackgroundColor=none;fontFamily=Roboto;fontSize=24;" parent="WIyWlLk6GJQsqaUBKTNV-1" vertex="1">
          <mxGeometry x="9023.17" y="-2029" width="157" height="66" as="geometry" />
        </mxCell>
        <mxCell id="J6AxI7PObvK_dcv1gWlO-50" value="&lt;font style=&quot;font-size: 24px&quot; color=&quot;#434b54&quot;&gt;IOS App User&lt;/font&gt;" style="rounded=1;whiteSpace=wrap;html=1;arcSize=0;fillColor=#d5e8d4;strokeColor=none;shadow=0;dashed=1;dashPattern=1 1;labelBackgroundColor=none;fontFamily=Roboto;fontSize=24;" parent="WIyWlLk6GJQsqaUBKTNV-1" vertex="1">
          <mxGeometry x="8847" y="-2029" width="138" height="66" as="geometry" />
        </mxCell>
        <mxCell id="J6AxI7PObvK_dcv1gWlO-51" style="edgeStyle=none;orthogonalLoop=1;jettySize=auto;html=1;startArrow=block;startFill=1;endArrow=block;endFill=1;strokeColor=#B3B3B3;strokeWidth=4;fontFamily=Roboto;" parent="WIyWlLk6GJQsqaUBKTNV-1" target="J6AxI7PObvK_dcv1gWlO-85" edge="1">
          <mxGeometry relative="1" as="geometry">
            <mxPoint x="8724" y="-1971" as="sourcePoint" />
          </mxGeometry>
        </mxCell>
        <mxCell id="J6AxI7PObvK_dcv1gWlO-52" value="Issue manager" style="rounded=1;whiteSpace=wrap;html=1;arcSize=0;fillColor=#d5e8d4;strokeColor=none;shadow=0;dashed=1;dashPattern=1 1;labelBackgroundColor=none;fontFamily=Roboto;fontSize=24;" parent="WIyWlLk6GJQsqaUBKTNV-1" vertex="1">
          <mxGeometry x="8595" y="-2020" width="216.42" height="48" as="geometry" />
        </mxCell>
        <mxCell id="J6AxI7PObvK_dcv1gWlO-53" style="edgeStyle=none;orthogonalLoop=1;jettySize=auto;html=1;exitX=0.5;exitY=1;exitDx=0;exitDy=0;dashed=1;startArrow=none;startFill=0;endArrow=none;endFill=0;strokeColor=#B3B3B3;strokeWidth=2;fontFamily=Roboto;" parent="WIyWlLk6GJQsqaUBKTNV-1" source="J6AxI7PObvK_dcv1gWlO-54" edge="1">
          <mxGeometry relative="1" as="geometry">
            <mxPoint x="8643" y="-2103.0000610351562" as="targetPoint" />
          </mxGeometry>
        </mxCell>
        <mxCell id="J6AxI7PObvK_dcv1gWlO-54" value="&lt;font style=&quot;font-size: 24px&quot;&gt;AR App Issue Tracker with database&lt;/font&gt;" style="text;html=1;strokeColor=none;fillColor=none;align=center;verticalAlign=middle;whiteSpace=wrap;rounded=0;dashed=1;fontFamily=Roboto;" parent="WIyWlLk6GJQsqaUBKTNV-1" vertex="1">
          <mxGeometry x="8528" y="-2139" width="252" height="44" as="geometry" />
        </mxCell>
        <mxCell id="J6AxI7PObvK_dcv1gWlO-55" value="" style="rounded=0;whiteSpace=wrap;html=1;fontFamily=Roboto;align=center;dashed=1;" parent="WIyWlLk6GJQsqaUBKTNV-1" vertex="1">
          <mxGeometry x="8890" y="-1786" width="201.92" height="369" as="geometry" />
        </mxCell>
        <mxCell id="J6AxI7PObvK_dcv1gWlO-56" value="&lt;font style=&quot;font-size: 20px&quot; color=&quot;#434b54&quot;&gt;Issue type&lt;/font&gt;" style="rounded=1;whiteSpace=wrap;html=1;arcSize=0;fillColor=#f5f5f5;strokeColor=#666666;shadow=0;labelBackgroundColor=none;fontFamily=Roboto;fontSize=24;fontColor=#333333;" parent="WIyWlLk6GJQsqaUBKTNV-1" vertex="1">
          <mxGeometry x="8925" y="-1593" width="133" height="28" as="geometry" />
        </mxCell>
        <mxCell id="J6AxI7PObvK_dcv1gWlO-57" value="&lt;font style=&quot;font-size: 20px&quot; color=&quot;#434b54&quot;&gt;Issue title&lt;/font&gt;" style="rounded=1;whiteSpace=wrap;html=1;arcSize=0;fillColor=#f5f5f5;strokeColor=#666666;shadow=0;labelBackgroundColor=none;fontFamily=Roboto;fontSize=24;fontColor=#333333;verticalAlign=middle;horizontal=1;align=center;labelPosition=center;verticalLabelPosition=middle;" parent="WIyWlLk6GJQsqaUBKTNV-1" vertex="1">
          <mxGeometry x="8925" y="-1727" width="133" height="30" as="geometry" />
        </mxCell>
        <mxCell id="J6AxI7PObvK_dcv1gWlO-58" value="&lt;font style=&quot;font-size: 20px&quot; color=&quot;#434b54&quot;&gt;Issue description&lt;/font&gt;" style="rounded=1;whiteSpace=wrap;html=1;arcSize=0;fillColor=#f5f5f5;strokeColor=#666666;shadow=0;labelBackgroundColor=none;fontFamily=Roboto;fontSize=24;fontColor=#333333;verticalAlign=middle;horizontal=1;align=center;labelPosition=center;verticalLabelPosition=middle;" parent="WIyWlLk6GJQsqaUBKTNV-1" vertex="1">
          <mxGeometry x="8904" y="-1682" width="175" height="30" as="geometry" />
        </mxCell>
        <mxCell id="J6AxI7PObvK_dcv1gWlO-59" value="&lt;font style=&quot;font-size: 20px&quot; color=&quot;#434b54&quot;&gt;Date&lt;/font&gt;" style="rounded=1;whiteSpace=wrap;html=1;arcSize=0;fillColor=#f5f5f5;strokeColor=#666666;shadow=0;labelBackgroundColor=none;fontFamily=Roboto;fontSize=24;fontColor=#333333;" parent="WIyWlLk6GJQsqaUBKTNV-1" vertex="1">
          <mxGeometry x="8925" y="-1552" width="133" height="28" as="geometry" />
        </mxCell>
        <mxCell id="J6AxI7PObvK_dcv1gWlO-60" value="&lt;font style=&quot;font-size: 20px&quot; color=&quot;#434b54&quot;&gt;Issue status&lt;/font&gt;" style="rounded=1;whiteSpace=wrap;html=1;arcSize=0;fillColor=#f5f5f5;strokeColor=#666666;shadow=0;labelBackgroundColor=none;fontFamily=Roboto;fontSize=24;fontColor=#333333;" parent="WIyWlLk6GJQsqaUBKTNV-1" vertex="1">
          <mxGeometry x="8925" y="-1510" width="133" height="28" as="geometry" />
        </mxCell>
        <mxCell id="J6AxI7PObvK_dcv1gWlO-61" value="&lt;font style=&quot;font-size: 20px&quot; color=&quot;#434b54&quot;&gt;Issue location&lt;/font&gt;" style="rounded=1;whiteSpace=wrap;html=1;arcSize=0;fillColor=#f5f5f5;strokeColor=#666666;shadow=0;labelBackgroundColor=none;fontFamily=Roboto;fontSize=24;fontColor=#333333;verticalAlign=middle;horizontal=1;align=center;labelPosition=center;verticalLabelPosition=middle;" parent="WIyWlLk6GJQsqaUBKTNV-1" vertex="1">
          <mxGeometry x="8904" y="-1639" width="175" height="30" as="geometry" />
        </mxCell>
        <mxCell id="J6AxI7PObvK_dcv1gWlO-62" value="&lt;font style=&quot;font-size: 20px&quot; color=&quot;#434b54&quot;&gt;Create by&lt;/font&gt;" style="rounded=1;whiteSpace=wrap;html=1;arcSize=0;fillColor=#f5f5f5;strokeColor=#666666;shadow=0;labelBackgroundColor=none;fontFamily=Roboto;fontSize=24;fontColor=#333333;verticalAlign=middle;horizontal=1;align=center;labelPosition=center;verticalLabelPosition=middle;" parent="WIyWlLk6GJQsqaUBKTNV-1" vertex="1">
          <mxGeometry x="8933" y="-1463" width="117" height="30" as="geometry" />
        </mxCell>
        <mxCell id="J6AxI7PObvK_dcv1gWlO-63" value="&lt;font style=&quot;font-size: 20px&quot; color=&quot;#434b54&quot;&gt;Issue ID&lt;/font&gt;" style="rounded=1;whiteSpace=wrap;html=1;arcSize=0;fillColor=#f5f5f5;strokeColor=#666666;shadow=0;labelBackgroundColor=none;fontFamily=Roboto;fontSize=24;fontColor=#333333;verticalAlign=middle;horizontal=1;align=center;labelPosition=center;verticalLabelPosition=middle;" parent="WIyWlLk6GJQsqaUBKTNV-1" vertex="1">
          <mxGeometry x="8924.46" y="-1767" width="133" height="30" as="geometry" />
        </mxCell>
        <mxCell id="J6AxI7PObvK_dcv1gWlO-64" style="edgeStyle=none;rounded=1;orthogonalLoop=1;jettySize=auto;html=1;entryX=1;entryY=0.5;entryDx=0;entryDy=0;fontFamily=Roboto;strokeColor=#B3B3B3;strokeWidth=4;endFill=1;endArrow=block;startFill=1;startArrow=block;" parent="WIyWlLk6GJQsqaUBKTNV-1" target="J6AxI7PObvK_dcv1gWlO-71" edge="1">
          <mxGeometry relative="1" as="geometry">
            <mxPoint x="8118" y="-1749" as="sourcePoint" />
          </mxGeometry>
        </mxCell>
        <mxCell id="J6AxI7PObvK_dcv1gWlO-65" style="edgeStyle=none;orthogonalLoop=1;jettySize=auto;html=1;startArrow=none;startFill=0;endArrow=none;endFill=0;strokeColor=#B3B3B3;strokeWidth=2;fontFamily=Roboto;dashed=1;" parent="WIyWlLk6GJQsqaUBKTNV-1" source="J6AxI7PObvK_dcv1gWlO-66" target="J6AxI7PObvK_dcv1gWlO-73" edge="1">
          <mxGeometry relative="1" as="geometry" />
        </mxCell>
        <mxCell id="J6AxI7PObvK_dcv1gWlO-66" value="&lt;font style=&quot;font-size: 24px&quot; color=&quot;#434b54&quot;&gt;Online spreadsheet&lt;/font&gt;" style="rounded=1;whiteSpace=wrap;html=1;arcSize=0;fillColor=#96D2E7;strokeColor=none;shadow=0;dashed=1;dashPattern=1 1;labelBackgroundColor=none;fontFamily=Roboto;fontSize=24;fontColor=#434B54;" parent="WIyWlLk6GJQsqaUBKTNV-1" vertex="1">
          <mxGeometry x="8119" y="-1785" width="187" height="78" as="geometry" />
        </mxCell>
        <mxCell id="J6AxI7PObvK_dcv1gWlO-67" style="edgeStyle=none;orthogonalLoop=1;jettySize=auto;html=1;exitX=0.25;exitY=1;exitDx=0;exitDy=0;entryX=0.75;entryY=0;entryDx=0;entryDy=0;startArrow=block;startFill=1;endArrow=block;endFill=1;strokeColor=#B3B3B3;strokeWidth=4;fontFamily=Roboto;" parent="WIyWlLk6GJQsqaUBKTNV-1" source="J6AxI7PObvK_dcv1gWlO-68" target="J6AxI7PObvK_dcv1gWlO-83" edge="1">
          <mxGeometry relative="1" as="geometry" />
        </mxCell>
        <mxCell id="J6AxI7PObvK_dcv1gWlO-68" value="&lt;font style=&quot;font-size: 24px&quot; color=&quot;#434b54&quot;&gt;Android Devices&lt;/font&gt;" style="rounded=1;whiteSpace=wrap;html=1;arcSize=0;fillColor=#d5e8d4;strokeColor=none;shadow=0;dashed=1;dashPattern=1 1;labelBackgroundColor=none;fontFamily=Roboto;fontSize=24;" parent="WIyWlLk6GJQsqaUBKTNV-1" vertex="1">
          <mxGeometry x="8244.17" y="-2026" width="157" height="66" as="geometry" />
        </mxCell>
        <mxCell id="J6AxI7PObvK_dcv1gWlO-69" style="edgeStyle=none;orthogonalLoop=1;jettySize=auto;html=1;exitX=0.75;exitY=1;exitDx=0;exitDy=0;entryX=0.25;entryY=0;entryDx=0;entryDy=0;startArrow=block;startFill=1;endArrow=block;endFill=1;strokeColor=#B3B3B3;strokeWidth=4;fontFamily=Roboto;" parent="WIyWlLk6GJQsqaUBKTNV-1" source="J6AxI7PObvK_dcv1gWlO-70" target="J6AxI7PObvK_dcv1gWlO-83" edge="1">
          <mxGeometry relative="1" as="geometry" />
        </mxCell>
        <mxCell id="J6AxI7PObvK_dcv1gWlO-70" value="&lt;font style=&quot;font-size: 24px&quot; color=&quot;#434b54&quot;&gt;IOS&lt;br&gt;Devices&lt;/font&gt;" style="rounded=1;whiteSpace=wrap;html=1;arcSize=0;fillColor=#d5e8d4;strokeColor=none;shadow=0;dashed=1;dashPattern=1 1;labelBackgroundColor=none;fontFamily=Roboto;fontSize=24;" parent="WIyWlLk6GJQsqaUBKTNV-1" vertex="1">
          <mxGeometry x="8022" y="-2026" width="157" height="66" as="geometry" />
        </mxCell>
        <mxCell id="J6AxI7PObvK_dcv1gWlO-71" value="Issue manager" style="rounded=1;whiteSpace=wrap;html=1;arcSize=0;fillColor=#d5e8d4;strokeColor=none;shadow=0;dashed=1;dashPattern=1 1;labelBackgroundColor=none;fontFamily=Roboto;fontSize=24;" parent="WIyWlLk6GJQsqaUBKTNV-1" vertex="1">
          <mxGeometry x="7782" y="-1782" width="216.42" height="66" as="geometry" />
        </mxCell>
        <mxCell id="J6AxI7PObvK_dcv1gWlO-72" value="&lt;font style=&quot;font-size: 24px&quot;&gt;AR App Issue Tracker&lt;br&gt;with spreadsheet api&lt;br&gt;&lt;/font&gt;" style="text;html=1;strokeColor=none;fillColor=none;align=center;verticalAlign=middle;whiteSpace=wrap;rounded=0;dashed=1;fontFamily=Roboto;" parent="WIyWlLk6GJQsqaUBKTNV-1" vertex="1">
          <mxGeometry x="7782" y="-2144" width="252" height="44" as="geometry" />
        </mxCell>
        <mxCell id="J6AxI7PObvK_dcv1gWlO-73" value="" style="rounded=0;whiteSpace=wrap;html=1;fontFamily=Roboto;align=center;dashed=1;" parent="WIyWlLk6GJQsqaUBKTNV-1" vertex="1">
          <mxGeometry x="8111" y="-1677" width="201.92" height="369" as="geometry" />
        </mxCell>
        <mxCell id="J6AxI7PObvK_dcv1gWlO-74" value="&lt;font style=&quot;font-size: 20px&quot; color=&quot;#434b54&quot;&gt;Issue type&lt;/font&gt;" style="rounded=1;whiteSpace=wrap;html=1;arcSize=0;fillColor=#f5f5f5;strokeColor=#666666;shadow=0;labelBackgroundColor=none;fontFamily=Roboto;fontSize=24;fontColor=#333333;" parent="WIyWlLk6GJQsqaUBKTNV-1" vertex="1">
          <mxGeometry x="8146" y="-1484" width="133" height="28" as="geometry" />
        </mxCell>
        <mxCell id="J6AxI7PObvK_dcv1gWlO-75" value="&lt;font style=&quot;font-size: 20px&quot; color=&quot;#434b54&quot;&gt;Issue title&lt;/font&gt;" style="rounded=1;whiteSpace=wrap;html=1;arcSize=0;fillColor=#f5f5f5;strokeColor=#666666;shadow=0;labelBackgroundColor=none;fontFamily=Roboto;fontSize=24;fontColor=#333333;verticalAlign=middle;horizontal=1;align=center;labelPosition=center;verticalLabelPosition=middle;" parent="WIyWlLk6GJQsqaUBKTNV-1" vertex="1">
          <mxGeometry x="8146" y="-1618" width="133" height="30" as="geometry" />
        </mxCell>
        <mxCell id="J6AxI7PObvK_dcv1gWlO-76" value="&lt;font style=&quot;font-size: 20px&quot; color=&quot;#434b54&quot;&gt;Issue description&lt;/font&gt;" style="rounded=1;whiteSpace=wrap;html=1;arcSize=0;fillColor=#f5f5f5;strokeColor=#666666;shadow=0;labelBackgroundColor=none;fontFamily=Roboto;fontSize=24;fontColor=#333333;verticalAlign=middle;horizontal=1;align=center;labelPosition=center;verticalLabelPosition=middle;" parent="WIyWlLk6GJQsqaUBKTNV-1" vertex="1">
          <mxGeometry x="8125" y="-1573" width="175" height="30" as="geometry" />
        </mxCell>
        <mxCell id="J6AxI7PObvK_dcv1gWlO-77" value="&lt;font style=&quot;font-size: 20px&quot; color=&quot;#434b54&quot;&gt;Date&lt;/font&gt;" style="rounded=1;whiteSpace=wrap;html=1;arcSize=0;fillColor=#f5f5f5;strokeColor=#666666;shadow=0;labelBackgroundColor=none;fontFamily=Roboto;fontSize=24;fontColor=#333333;" parent="WIyWlLk6GJQsqaUBKTNV-1" vertex="1">
          <mxGeometry x="8146" y="-1443" width="133" height="28" as="geometry" />
        </mxCell>
        <mxCell id="J6AxI7PObvK_dcv1gWlO-78" value="&lt;font style=&quot;font-size: 20px&quot; color=&quot;#434b54&quot;&gt;Issue status&lt;/font&gt;" style="rounded=1;whiteSpace=wrap;html=1;arcSize=0;fillColor=#f5f5f5;strokeColor=#666666;shadow=0;labelBackgroundColor=none;fontFamily=Roboto;fontSize=24;fontColor=#333333;" parent="WIyWlLk6GJQsqaUBKTNV-1" vertex="1">
          <mxGeometry x="8146" y="-1401" width="133" height="28" as="geometry" />
        </mxCell>
        <mxCell id="J6AxI7PObvK_dcv1gWlO-79" value="&lt;font style=&quot;font-size: 20px&quot; color=&quot;#434b54&quot;&gt;Issue location&lt;/font&gt;" style="rounded=1;whiteSpace=wrap;html=1;arcSize=0;fillColor=#f5f5f5;strokeColor=#666666;shadow=0;labelBackgroundColor=none;fontFamily=Roboto;fontSize=24;fontColor=#333333;verticalAlign=middle;horizontal=1;align=center;labelPosition=center;verticalLabelPosition=middle;" parent="WIyWlLk6GJQsqaUBKTNV-1" vertex="1">
          <mxGeometry x="8125" y="-1530" width="175" height="30" as="geometry" />
        </mxCell>
        <mxCell id="J6AxI7PObvK_dcv1gWlO-80" value="&lt;font style=&quot;font-size: 20px&quot; color=&quot;#434b54&quot;&gt;Create by&lt;/font&gt;" style="rounded=1;whiteSpace=wrap;html=1;arcSize=0;fillColor=#f5f5f5;strokeColor=#666666;shadow=0;labelBackgroundColor=none;fontFamily=Roboto;fontSize=24;fontColor=#333333;verticalAlign=middle;horizontal=1;align=center;labelPosition=center;verticalLabelPosition=middle;" parent="WIyWlLk6GJQsqaUBKTNV-1" vertex="1">
          <mxGeometry x="8154" y="-1354" width="117" height="30" as="geometry" />
        </mxCell>
        <mxCell id="J6AxI7PObvK_dcv1gWlO-81" value="&lt;font style=&quot;font-size: 20px&quot; color=&quot;#434b54&quot;&gt;Issue ID&lt;/font&gt;" style="rounded=1;whiteSpace=wrap;html=1;arcSize=0;fillColor=#f5f5f5;strokeColor=#666666;shadow=0;labelBackgroundColor=none;fontFamily=Roboto;fontSize=24;fontColor=#333333;verticalAlign=middle;horizontal=1;align=center;labelPosition=center;verticalLabelPosition=middle;" parent="WIyWlLk6GJQsqaUBKTNV-1" vertex="1">
          <mxGeometry x="8145.46" y="-1658" width="133" height="30" as="geometry" />
        </mxCell>
        <mxCell id="J6AxI7PObvK_dcv1gWlO-82" style="edgeStyle=none;orthogonalLoop=1;jettySize=auto;html=1;entryX=0.5;entryY=0;entryDx=0;entryDy=0;startArrow=block;startFill=1;endArrow=block;endFill=1;strokeColor=#B3B3B3;strokeWidth=4;fontFamily=Roboto;" parent="WIyWlLk6GJQsqaUBKTNV-1" source="J6AxI7PObvK_dcv1gWlO-83" target="J6AxI7PObvK_dcv1gWlO-66" edge="1">
          <mxGeometry relative="1" as="geometry" />
        </mxCell>
        <mxCell id="J6AxI7PObvK_dcv1gWlO-83" value="&lt;font style=&quot;font-size: 24px&quot; color=&quot;#434b54&quot;&gt;Spreadsheet API&lt;/font&gt;" style="rounded=1;whiteSpace=wrap;html=1;arcSize=0;fillColor=#A9C4EB;strokeColor=none;shadow=0;dashed=1;dashPattern=1 1;labelBackgroundColor=none;fontFamily=Roboto;fontSize=24;fontColor=#000000;" parent="WIyWlLk6GJQsqaUBKTNV-1" vertex="1">
          <mxGeometry x="8109" y="-1879" width="207" height="33" as="geometry" />
        </mxCell>
        <mxCell id="J6AxI7PObvK_dcv1gWlO-84" style="edgeStyle=none;orthogonalLoop=1;jettySize=auto;html=1;entryX=0;entryY=0.5;entryDx=0;entryDy=0;startArrow=block;startFill=1;endArrow=block;endFill=1;strokeColor=#B3B3B3;strokeWidth=4;fontFamily=Roboto;" parent="WIyWlLk6GJQsqaUBKTNV-1" source="J6AxI7PObvK_dcv1gWlO-85" target="J6AxI7PObvK_dcv1gWlO-47" edge="1">
          <mxGeometry relative="1" as="geometry" />
        </mxCell>
        <mxCell id="J6AxI7PObvK_dcv1gWlO-85" value="&lt;font style=&quot;font-size: 24px&quot; color=&quot;#434b54&quot;&gt;management&amp;nbsp;&lt;br&gt;&lt;/font&gt;&lt;span style=&quot;color: rgb(67 , 75 , 84)&quot;&gt;Graphic UI&amp;nbsp;&lt;/span&gt;&lt;font style=&quot;font-size: 24px&quot; color=&quot;#434b54&quot;&gt;&lt;br&gt;&lt;/font&gt;" style="rounded=1;whiteSpace=wrap;html=1;arcSize=0;fillColor=#A9C4EB;strokeColor=none;shadow=0;dashed=1;dashPattern=1 1;labelBackgroundColor=none;fontFamily=Roboto;fontSize=24;fontColor=#000000;" parent="WIyWlLk6GJQsqaUBKTNV-1" vertex="1">
          <mxGeometry x="8637" y="-1884.5" width="187" height="59" as="geometry" />
        </mxCell>
        <mxCell id="J6AxI7PObvK_dcv1gWlO-86" value="&lt;font style=&quot;font-size: 24px&quot;&gt;&lt;b&gt;System Structrue&lt;/b&gt;&lt;br&gt;&lt;/font&gt;" style="text;html=1;strokeColor=none;fillColor=none;align=center;verticalAlign=middle;whiteSpace=wrap;rounded=0;dashed=1;fontFamily=Roboto;" parent="WIyWlLk6GJQsqaUBKTNV-1" vertex="1">
          <mxGeometry x="7759" y="-2204" width="252" height="44" as="geometry" />
        </mxCell>
      </root>
    </mxGraphModel>
  </diagram>
</mxfile>
